<svg width="35" height="35" fill="none" xmlns="http://www.w3.org/2000/svg"><g clip-path="url('#clip0_3187_184')" fill="#fff"><path d="M16.925.03c-.159.011-.484.036-.725.052a17.368 17.368 0 0 0-9.16 3.424 17.5 17.5 0 0 0-5.947 7.979 17.371 17.371 0 0 0-1.01 4.675c-.1 1.384-.1 1.296 0 2.694a17.448 17.448 0 0 0 1.01 4.662 17.516 17.516 0 0 0 10.39 10.39c1.485.547 3.115.897 4.676 1.01 1.384.1 1.296.1 2.693 0a17.401 17.401 0 0 0 9.106-3.421 17.5 17.5 0 0 0 5.947-7.98 17.374 17.374 0 0 0 1.01-4.675c.1-1.384.1-1.296 0-2.693a17.45 17.45 0 0 0-1.01-4.662 17.516 17.516 0 0 0-10.39-10.391 17.417 17.417 0 0 0-4.69-1.01c-.224-.016-.582-.04-.796-.057a6.48 6.48 0 0 0-1.104.003Zm1.709 2.078c2.783.192 5.493 1.17 7.82 2.828 1.14.812 2.253 1.87 3.14 2.986a15.586 15.586 0 0 1 2.728 5.263c.46 1.589.659 3.23.596 4.911a15.29 15.29 0 0 1-2.835 8.332 15.494 15.494 0 0 1-9.109 6.111c-3.04.706-6.267.462-9.16-.689-5.206-2.07-8.92-6.844-9.625-12.381a13.539 13.539 0 0 1-.117-1.969c0-.793.027-1.271.117-1.969a15.352 15.352 0 0 1 2.42-6.51C7.54 4.586 12.511 1.96 17.772 2.07c.25.005.638.022.862.038Z"/><path d="M13.78 5.685c-.2.08-1.783 1.009-1.881 1.105a.712.712 0 0 0-.123.853c.235.456 3.16 5.482 3.24 5.564.167.178.457.26.692.194.147-.038 1.835-1.014 1.955-1.129a.734.734 0 0 0 .186-.722c-.022-.06-.752-1.348-1.624-2.857-1.08-1.873-1.62-2.781-1.696-2.858a.7.7 0 0 0-.749-.15ZM10.719 8.083c-1.879 1.156-2.341 2.155-2.09 4.495.465 4.32 3.476 10.21 7.148 13.981 1.042 1.075 2.316 2.05 3.208 2.464.53.246.9.33 1.454.33.577-.002.99-.098 1.64-.388.332-.147 1.029-.525 1.018-.55l-1.643-2.851-1.635-2.836-.17.077c-1.034.47-2.234.1-3.423-1.048-.733-.708-1.346-1.558-1.852-2.575-.623-1.253-.921-2.357-.927-3.432-.002-.72.123-1.192.433-1.66.142-.213.347-.424.51-.522.042-.025.075-.06.075-.08 0-.018-.342-.628-.763-1.353l-1.622-2.81c-.473-.821-.877-1.494-.9-1.5-.021-.002-.229.113-.461.258ZM22.462 20.453c-.137.022-.183.047-1.132.594-.43.246-.823.49-.875.535a.731.731 0 0 0-.183.747c.065.186 3.188 5.57 3.292 5.677a.713.713 0 0 0 .798.155c.282-.125 1.764-1.003 1.86-1.099.147-.145.2-.298.188-.544l-.01-.2-1.31-2.27c-.722-1.249-1.442-2.493-1.6-2.769a7.058 7.058 0 0 0-.377-.607.719.719 0 0 0-.651-.219Z"/></g><defs><clipPath id="clip0_3187_184"><path fill="#fff" d="M0 0h35v35H0z"/></clipPath></defs></svg>