<svg aria-hidden="true" style="width:0;height:0;position:absolute;overflow:hidden" xmlns="http://www.w3.org/2000/svg"><defs><symbol id="icon-close-menu" viewBox="0 0 33 32"><path fill="#d9d9d9" style="fill:var(--color1,#d9d9d9)" d="m2.951 1.28 27.546 27.546a1.392 1.392 0 0 1-1.968 1.968L.983 3.248A1.392 1.392 0 0 1 2.951 1.28z"/><path fill="#d9d9d9" style="fill:var(--color1,#d9d9d9)" d="M1.56 28.53 29.106.984a1.392 1.392 0 0 1 1.968 1.968L3.528 30.498A1.392 1.392 0 0 1 1.56 28.53z"/></symbol><symbol id="icon-menu" viewBox="0 0 48 32"><path fill="#d9d9d9" style="fill:var(--color1,#d9d9d9)" d="M1.6 0h44.8a1.6 1.6 0 1 1 0 3.2H1.6a1.6 1.6 0 1 1 0-3.2zM1.6 14.4h44.8a1.6 1.6 0 1 1 0 3.2H1.6a1.6 1.6 0 1 1 0-3.2zM1.6 28.8h44.8a1.6 1.6 0 1 1 0 3.2H1.6a1.6 1.6 0 1 1 0-3.2z"/></symbol><symbol id="icon-gps" viewBox="0 0 32 32"><path fill="#fff" style="fill:var(--color2,#fff)" d="M7.778 23.334c-4.296-4.296-4.296-11.261 0-15.556s11.261-4.296 15.556 0c4.296 4.296 4.296 11.261 0 15.556l-7.778 7.778-7.778-7.778z"/><path fill="#f90" style="fill:var(--color3,#f90)" d="M21 15.499a5.5 5.5 0 1 1-11 0 5.5 5.5 0 1 1 11 0z"/></symbol><symbol id="icon-phone" viewBox="0 0 32 32"><path fill="#f90" style="fill:var(--color3,#f90)" d="m27.316 22.853-5.42-4.928a1.332 1.332 0 0 0-1.855.058l-3.191 3.281c-.768-.147-2.312-.628-3.901-2.213-1.589-1.591-2.071-3.139-2.213-3.901l3.279-3.192a1.331 1.331 0 0 0 .057-1.855L9.145 4.684c-.233-.257-.557-.413-.904-.434s-.687.093-.951.318L4.397 7.049a1.332 1.332 0 0 0-.387.865c-.02.333-.401 8.229 5.721 14.355C15.072 27.609 21.763 28 23.606 28c.269 0 .435-.008.479-.011.326-.018.634-.156.864-.388l2.48-2.895a1.332 1.332 0 0 0-.114-1.854z"/></symbol><symbol id="icon-telegram" viewBox="0 0 32 32"><path fill="#fff" style="fill:var(--color2,#fff)" d="M32 .156 0 17.528l10.227 3.656L26 6.912 14.002 22.534l.01.003-.012-.003v8.507l5.735-6.457L27 27.181 32 .157z"/></symbol><symbol id="icon-arrow-up" viewBox="0 0 32 32"><path d="M16 1 1 16h9v16h12V16h9z"/></symbol></defs></svg>