<svg width="35" height="35" viewBox="0 0 35 35" fill="none" xmlns="http://www.w3.org/2000/svg">
<g clip-path="url(#clip0_3187_184)">
<path d="M16.9247 0.0301743C16.7661 0.041111 16.4407 0.0657196 16.2001 0.0821266C12.9188 0.309078 9.71143 1.50674 7.03994 3.50556C4.33018 5.529 2.25205 8.31806 1.09268 11.4845C0.545801 12.9692 0.195801 14.5989 0.0836914 16.1603C-0.0174805 17.5438 -0.0174805 17.4563 0.0836914 18.8536C0.195801 20.4067 0.548535 22.031 1.09268 23.5157C2.85361 28.3228 6.67627 32.1454 11.4833 33.9063C12.9681 34.4532 14.5978 34.8032 16.1591 34.9153C17.5427 35.0165 17.4552 35.0165 18.8524 34.9153C22.1145 34.6774 25.3028 33.4798 27.9579 31.4946C30.6677 29.4712 32.7458 26.6821 33.9052 23.5157C34.452 22.031 34.8021 20.4013 34.9142 18.8399C35.0153 17.4563 35.0153 17.5438 34.9142 16.1466C34.8021 14.5935 34.4493 12.9692 33.9052 11.4845C32.1442 6.67744 28.3216 2.85478 23.5146 1.09385C22.0216 0.54697 20.3755 0.191502 18.8251 0.0848618C18.6009 0.0684547 18.2427 0.0438461 18.0294 0.0274391C17.6028 -0.00263977 17.3485 -0.00263977 16.9247 0.0301743ZM18.6337 2.1083C21.4173 2.29971 24.1271 3.27861 26.454 4.93564C27.5942 5.74775 28.7071 6.80596 29.5931 7.92158C30.8317 9.48564 31.7778 11.3122 32.322 13.1853C32.7813 14.7739 32.981 16.4145 32.9181 18.0962C32.806 21.1013 31.8325 23.9642 30.0825 26.4278C27.8978 29.504 24.6384 31.6915 20.9743 32.5392C17.9337 33.2446 14.7071 33.0013 11.8142 31.8501C6.60791 29.7802 2.89463 25.006 2.18916 19.4688C2.09893 18.7716 2.07158 18.2931 2.07158 17.5001C2.07158 16.7071 2.09893 16.2286 2.18916 15.5313C2.48447 13.2126 3.31572 10.9786 4.60908 9.0208C7.54033 4.58564 12.5114 1.96064 17.7724 2.07002C18.0212 2.07549 18.4095 2.09189 18.6337 2.1083Z" fill="white"/>
<path d="M13.7801 5.68494C13.5805 5.76424 11.9973 6.69392 11.8988 6.78963C11.6719 7.00838 11.6227 7.34744 11.7758 7.64275C12.0109 8.09939 14.9367 13.1252 15.016 13.2072C15.1828 13.3849 15.4727 13.467 15.7078 13.4013C15.8555 13.3631 17.5426 12.3869 17.6629 12.272C17.8488 12.097 17.9281 11.7826 17.8488 11.5502C17.827 11.49 17.0969 10.2021 16.2246 8.69275C15.1445 6.81971 14.6059 5.91189 14.5293 5.83533C14.3406 5.64392 14.0344 5.58103 13.7801 5.68494Z" fill="white"/>
<path d="M10.7186 8.08281C8.84004 9.23945 8.37793 10.2375 8.62949 12.5781C9.09434 16.8984 12.1049 22.7883 15.7771 26.559C16.8189 27.6336 18.0932 28.6098 18.9846 29.0227C19.515 29.2687 19.8842 29.3535 20.4393 29.3535C21.0162 29.3508 21.4291 29.2551 22.0799 28.9652C22.4107 28.8176 23.108 28.4402 23.0971 28.4156C23.0916 28.4047 22.3506 27.1223 21.4537 25.5637L19.8186 22.7281L19.649 22.8047C18.6154 23.275 17.415 22.9059 16.2256 21.7574C15.4928 21.0492 14.8803 20.1988 14.3744 19.1816C13.751 17.9293 13.4529 16.8246 13.4475 15.75C13.4447 15.0309 13.5705 14.5578 13.8795 14.0902C14.0217 13.877 14.2268 13.6664 14.3908 13.568C14.4318 13.5434 14.4646 13.5078 14.4646 13.4887C14.4646 13.4695 14.1229 12.8598 13.7018 12.1352C13.2834 11.4078 12.5533 10.1445 12.0803 9.32422C11.6072 8.5039 11.2025 7.83125 11.1807 7.82578C11.1588 7.82305 10.951 7.93789 10.7186 8.08281Z" fill="white"/>
<path d="M22.4617 20.4532C22.325 20.4751 22.2785 20.4997 21.3297 21.0466C20.9004 21.2927 20.5067 21.5361 20.4547 21.5825C20.2606 21.7685 20.1813 22.0802 20.2715 22.329C20.3371 22.515 23.4598 27.8989 23.5637 28.0056C23.766 28.2189 24.0969 28.2818 24.3621 28.1614C24.6438 28.0357 26.1258 27.1579 26.2215 27.0622C26.3692 26.9173 26.4211 26.7642 26.4102 26.5181L26.3992 26.3185L25.0895 24.0489C24.3676 22.7993 23.6485 21.5552 23.4899 21.279C23.3313 21.0029 23.1617 20.7294 23.1125 20.672C22.9649 20.4997 22.7051 20.4122 22.4617 20.4532Z" fill="white"/>
</g>
<defs>
<clipPath id="clip0_3187_184">
<rect width="35" height="35" fill="white"/>
</clipPath>
</defs>
</svg>
