<svg width="33" height="33" viewBox="0 0 33 33" fill="none" xmlns="http://www.w3.org/2000/svg">
<path d="M28.17 23.5675L22.5806 18.4855C22.3164 18.2454 21.9692 18.1173 21.6124 18.1283C21.2555 18.1394 20.9169 18.2886 20.668 18.5447L17.3776 21.9285C16.5856 21.7773 14.9934 21.2809 13.3544 19.646C11.7154 18.0057 11.219 16.4093 11.0719 15.6228L14.453 12.331C14.7093 12.0823 14.8588 11.7437 14.8699 11.3867C14.8809 11.0297 14.7526 10.6825 14.5121 10.4184L9.43151 4.8304C9.19095 4.56551 8.8566 4.40484 8.49947 4.38251C8.14235 4.36017 7.79059 4.47793 7.51889 4.71077L4.53514 7.26965C4.29742 7.50823 4.15553 7.82577 4.13639 8.16202C4.11576 8.50577 3.72251 16.6485 10.0365 22.9653C15.5448 28.4722 22.4445 28.875 24.3448 28.875C24.6225 28.875 24.793 28.8668 24.8384 28.864C25.1746 28.8452 25.492 28.7027 25.7294 28.4639L28.2869 25.4788C28.5207 25.2079 28.6393 24.8565 28.6174 24.4994C28.5956 24.1423 28.435 23.8079 28.17 23.5675Z" fill="#FF9900"/>
</svg>
