<svg aria-hidden="true" style="position: absolute; width: 0; height: 0; overflow: hidden;" version="1.1" xmlns="http://www.w3.org/2000/svg" xmlns:xlink="http://www.w3.org/1999/xlink">
<defs>
<symbol id="icon-gps" viewBox="0 0 32 32">
<path fill="#fff" style="fill: var(--color1, #fff)" d="M7.778 23.334c-4.296-4.296-4.296-11.261 0-15.556s11.261-4.296 15.556 0c4.296 4.296 4.296 11.261 0 15.556l-7.778 7.778-7.778-7.778z"></path>
<path fill="#f90" style="fill: var(--color2, #f90)" d="M21 15.499c0 3.038-2.462 5.5-5.5 5.5s-5.5-2.462-5.5-5.5c0-3.038 2.462-5.5 5.5-5.5s5.5 2.462 5.5 5.5z"></path>
</symbol>
<symbol id="icon-phone" viewBox="0 0 32 32">
<path fill="#f90" style="fill: var(--color2, #f90)" d="M27.316 22.853l-5.42-4.928c-0.256-0.233-0.593-0.357-0.939-0.346s-0.674 0.155-0.916 0.404l-3.191 3.281c-0.768-0.147-2.312-0.628-3.901-2.213-1.589-1.591-2.071-3.139-2.213-3.901l3.279-3.192c0.249-0.241 0.393-0.569 0.404-0.916s-0.114-0.683-0.347-0.939l-4.927-5.419c-0.233-0.257-0.557-0.413-0.904-0.434s-0.687 0.093-0.951 0.318l-2.893 2.481c-0.231 0.231-0.368 0.539-0.387 0.865-0.020 0.333-0.401 8.229 5.721 14.355 5.341 5.34 12.032 5.731 13.875 5.731 0.269 0 0.435-0.008 0.479-0.011 0.326-0.018 0.634-0.156 0.864-0.388l2.48-2.895c0.227-0.263 0.342-0.603 0.32-0.95s-0.177-0.671-0.434-0.904z"></path>
</symbol>
<symbol id="icon-telegram" viewBox="0 0 32 32">
<path fill="#fff" style="fill: var(--color1, #fff)" d="M32 0.156l-32 17.372 10.227 3.656 15.773-14.272-11.998 15.622 0.010 0.003-0.012-0.003v8.507l5.735-6.457 7.265 2.597 5-27.024z"></path>
</symbol>
</defs>
</svg>
